<svg xmlns="http://www.w3.org/2000/svg" height="800" width="1200" viewBox="-41.91885 -27.38875 363.2967 164.3325"><path d="M85.437 1.994c2.663-.896 5.572-.713 8.258-.012 3.897 1.065 7.574 3.174 10.202 6.277 1.189 1.465 2.16 3.29 1.986 5.233-.122 1.559-1.138 2.898-2.382 3.778-2.593 1.838-6.02 1.959-9.02 1.248-.097.305-.097.656-.29.924-.293.387-.836.152-1.242.186-.361-.572-.447-1.243-.514-1.902-1.404-.749-2.726-1.675-3.85-2.806-.513-.52-1.01-1.115-1.16-1.848-.001-.685.549-1.191 1.103-1.5 1.232-.714 2.622-1.097 4.004-1.392.106-1.374.096-2.8.689-4.078.361.155.703.39.845.775.404.98.267 2.063.296 3.096 1.832.054 3.754.112 5.411.99.637.327 1.197.962 1.117 1.723.04.798-.711 1.24-1.242 1.686-.377-.125-1.229.104-1.173-.478.312-.342.67-.641.94-1.02-1.604-.6-3.324-1.16-5.055-1.03.004 1.696.05 3.393.098 5.089 2.633.524 5.606.397 7.838-1.256 1.308-.875 1.735-2.67 1.263-4.122-.588-1.862-1.962-3.354-3.463-4.545-3.117-2.41-6.97-3.843-10.883-4.198-1.33-.037-2.756-.149-3.995.421.325.175.936.085.996.553-.582.496-1.448.213-2.014-.167.269-.623.482-1.44 1.237-1.625m3.031 10.729c-.253.054-.386.277-.414.518.177.572.717.914 1.161 1.271a17.338 17.338 0 003.134 1.744c.022-1.44.159-2.877.173-4.317-1.364.16-2.758.293-4.054.784zm35.134-3.883c1.145.424 1.65 1.66 2.053 2.717.504 1.583.832 3.445.014 4.98-.305.446-.79 1.057-1.4.882-.534-.237-.838-.771-1.147-1.237-.586-.997-1.11-2.03-1.631-3.06-.331 1.467.02 3.007-.41 4.458-.187.632-1.09.36-1.217-.173-.372-1.079-.163-2.246-.012-3.347.23-1.189.426-2.438 1.107-3.467.327.139.649.316.861.609.88 1.105 1.567 2.344 2.316 3.537a.841.841 0 00.428.388c-.207-2.113-.982-4.154-.962-6.287zm4.222 1.721c1.63-.42 3.355-.83 5.038-.528.68.074 1.13.663 1.115 1.336-1.04.486-2.22.407-3.336.395-.103.348-.211.693-.312 1.043.665-.012 1.41-.23 2.019.145.311.222.255.646.34.978-.778.44-1.684.148-2.515.301-.691.175-.605 1.029-.738 1.577 1.057-.117 2.108-.569 3.176-.356.231.231.42.607.318.94-.965.832-2.142 1.485-3.411 1.678-.713.122-1.495-.245-1.744-.944-.512-1.254.062-2.59.265-3.847a3.38 3.38 0 001.13-1.603c-.48-.263-1.397-.422-1.345-1.115zm-19.671-.446c.569-.243.854.504.964.936.344 2.18.404 4.4.328 6.603-.362.108-.745.347-1.125.183-.402-.093-.57-.545-.59-.914-.143-1.684-.047-3.375.046-5.058.062-.59.058-1.227.377-1.75zm57.7 11.319c3.68-1.681 7.665-2.645 11.67-3.13a346.93 346.93 0 01-.148 6.78c-.082.741-.036 1.488-.13 2.228-.093.28-.47.25-.694.365-5.481 1.517-10.949 3.08-16.423 4.624.06-.46.125-.92.191-1.378a80.352 80.352 0 004.361-2.655c.452-2.264.78-4.558 1.173-6.834zm14.252 18.32c3.997-1.093 7.986-2.218 11.978-3.327.038 1.904-.05 3.819-.474 5.683-2.035 1.323-4.036 2.701-6.07 4.027a31.223 31.223 0 01-.067 4.709c-3.184.82-6.31 1.852-9.503 2.629-.042-.55-.089-1.1-.127-1.651-.128-2.515-.673-5.157-2.298-7.157-.948-1.19-2.44-1.882-3.959-1.872 2.511-.934 5.157-1.449 7.708-2.26a18.899 18.899 0 012.68 8.344c.178-.098.36-.197.546-.293.208-2.943.22-5.936-.414-8.832zM95.691 44.68c1.121-1.592 2.857-2.805 4.795-3.129 1.231-.144 2.571-.076 3.636.633 2.394 1.388 3.694 4.066 4.264 6.681.86 4.046.217 8.366-1.65 12.044-.497.944-1.17 1.78-1.881 2.57-.06.178-.177.278-.35.299-1.088.138-2.107.652-3.217.63-1.883.073-3.708-.811-4.99-2.157-1.967-2.244-3.1-5.23-2.979-8.224-.082-2.053.741-4.017.691-6.062l-.064-.564c-.008-.077-.028-.227-.036-.304l.277.047a31.037 31.037 0 01-.085-.42l.304.002-.105-.404.225.044c.171-.434.39-.904.818-1.139-.004-.068-.008-.207-.012-.275l.245-.022-.04-.229.154-.02m5.578 3.845c.625.468 1.262.954 1.69 1.619.815 1.193.954 2.68.896 4.083-1.083-1.615-2.845-2.87-4.833-2.949-.928 2.445-.952 5.356.422 7.642.65 1.112 1.886 2.006 3.226 1.835 1.16-.102 2.087-.946 2.725-1.86 1.274-1.898 1.56-4.32 1.161-6.536-.307-1.44-.978-2.912-2.251-3.738-.904-.59-2.085-.556-3.036-.096zm65.271-4.974a3.32 3.32 0 01.647-.036c-1.671.916-2.935 2.416-3.931 4.015-1.925 3.162-2.933 6.84-3.152 10.522a688.292 688.292 0 00-7.474 2.127c.496-2.19 1.103-4.365 2.045-6.41-1.541-.771-3.102-1.5-4.636-2.282.14-1.197.287-2.404.158-3.61 2.523.057 5.036.37 7.551.567.12-.874.25-1.747.396-2.617 2.828-.635 5.59-1.547 8.396-2.276zm21.925 11.351c.404.127.771.342 1.159.508-.018.788-.13 1.567-.243 2.344-5.156 1.527-10.367 2.855-15.53 4.36.493-1.117.9-2.27 1.216-3.452 4.483-1.189 8.93-2.51 13.398-3.76zm-40.527 11.422c4.196-1.045 8.316-2.379 12.504-3.46.174.836.446 1.65.777 2.437l-.01.322c-1.539.41-3.077.833-4.604 1.283-.251-.896-.422-1.812-.572-2.728a7.88 7.88 0 00-.728.527c-.2.803-.162 1.649-.21 2.472-.378.211-.78.38-1.2.482-2.047.519-4.063 1.141-6.108 1.662-.034-1.003.044-2.001.15-2.997zm4.401 13.827c1.592-.435 3.183-.873 4.778-1.297.47.924 1.047 1.796 1.738 2.573-1.98.6-3.987 1.117-5.964 1.73-.57.182-1.155.335-1.754.371.394-1.123.687-2.322 1.202-3.377zm7.655 6.41c5.855-1.721 11.74-3.346 17.606-5.036l.147.037c.116.204.227.415.329.632-.82 2.226-2.075 4.285-3.632 6.069-1.297 1.418-2.802 2.723-4.622 3.406-1.904-1.886-3.834-3.746-5.755-5.616-.89.251-1.771.562-2.7.647-.461-.022-.92-.079-1.373-.139zm-8.444 2.411c2.715-.802 5.433-1.625 8.183-2.304.068.012.204.04.273.052-1.617 1.92-3.118 3.937-4.664 5.913-.836-.502-1.714-.966-2.403-1.667-.566-.586-.994-1.287-1.39-1.994z" fill="#fff"/><path d="M84.917.692c3.479-1.159 7.31-.759 10.724.432 3.27 1.171 6.358 3.005 8.72 5.578.142-2.55 2.426-4.497 4.8-5.021 1.017-.223 2.156-.12 3.01.52.566.452 1.34.587 1.822 1.155.715.781.733 1.967.377 2.913-.7 1.801-2.316 3.171-4.148 3.732.036.076.11.23.149.307 1.61-1.29 3.74-1.67 5.753-1.69 1.255.035 2.772.194 3.495 1.377.615-.78 1.705-.892 2.543-.412-.109-.858.227-1.938 1.22-2.057 1.484-.203 2.514 1.211 3.093 2.388.365-.321.72-.703 1.225-.783 1.697-.41 3.463-.783 5.212-.52a3.18 3.18 0 012.138 1.287c.534-.667 1.303-1.273 2.21-1.185.652.03 1.138.565 1.363 1.141.671-.335 1.418-.532 2.172-.406l.206-.283c-1.337-.946-.915-3.242.563-3.788.785-.221 1.693-.065 2.318.482.896.775 1.32 1.972 1.306 3.137 1.701-.413 3.559-.618 5.238 0 1.003.354 1.694 1.513 1.328 2.553-.13.53-.615.816-1.01 1.13 1.583 1.655 1.237 4.884-.876 5.945-1.328.711-2.913.828-4.375.554-1.418-.277-2.834-1.092-3.403-2.482-.948 1.617-2.637 2.647-4.439 3.043-.46 1.048-.657 2.238-.968 3.354-.225.866-.26 1.794-.649 2.61-.454.683-1.41.657-2.117.482-1.067-.283-1.685-1.334-1.884-2.354-.251-1.907.29-3.797.833-5.607-1.303.768-2.816 1.535-4.37 1.181-.88-.17-1.584-.813-1.987-1.59-.57.562-1.28 1.106-2.121 1.084-.756-.09-1.41-.544-1.869-1.133-.212.74-.74 1.449-1.548 1.56-.997.228-1.945-.403-2.393-1.262-1.157.998-2.747 1.32-4.238 1.229-1.267-.098-2.565-.496-3.497-1.396-.544 1.464-2.682 1.862-3.786.805-.613-.558-.77-1.426-.778-2.22-1.595 2.249-4.286 3.514-6.98 3.791-1.296.165-2.601.073-3.89-.09-.869 1.37-3.341 1.245-3.954-.301-.197-.386-.263-.816-.35-1.234-1.464-.91-2.902-1.922-4.02-3.248-.636-.76-1.198-1.711-1.055-2.74.142-.988.893-1.751 1.715-2.25 1.059-.636 2.244-1.022 3.429-1.351.154-1.45.177-3.208 1.422-4.2-1.635-.426-3.314-.702-5.006-.675-.265.53-.673 1.036-1.277 1.179-.978.223-2.08.084-2.89-.54-.521-.41-.702-1.152-.509-1.774.32-.999.928-2.05 2.003-2.357m.52 1.302c-.755.185-.968 1.002-1.237 1.625.566.38 1.432.663 2.014.167-.06-.468-.67-.378-.996-.553 1.24-.57 2.666-.458 3.995-.421 3.913.355 7.766 1.787 10.883 4.198 1.5 1.191 2.875 2.683 3.463 4.545.472 1.453.045 3.247-1.263 4.122-2.232 1.653-5.205 1.78-7.838 1.256a195.39 195.39 0 01-.098-5.088c1.731-.13 3.45.43 5.055 1.028-.27.38-.628.68-.94 1.02-.056.583.796.354 1.173.479.53-.446 1.282-.888 1.242-1.686.08-.76-.48-1.396-1.117-1.723-1.657-.878-3.58-.936-5.411-.99-.029-1.033.108-2.116-.296-3.096-.142-.385-.484-.62-.845-.775-.593 1.277-.583 2.704-.69 4.078-1.381.295-2.771.678-4.003 1.392-.554.309-1.104.815-1.102 1.5.148.733.646 1.328 1.159 1.848 1.124 1.13 2.446 2.057 3.85 2.806.067.659.153 1.33.514 1.902.406-.034.949.201 1.242-.186.193-.268.193-.62.29-.924 3 .71 6.427.59 9.02-1.248 1.244-.88 2.26-2.22 2.382-3.778.173-1.943-.797-3.768-1.986-5.233-2.628-3.103-6.305-5.212-10.202-6.277-2.686-.701-5.595-.884-8.258.012m20.688 3.473c-.344.64-.412 1.5.028 2.113.391.484.184 1.191.576 1.68.432.235.659-.26.836-.559 1.932.434 4.015-.524 5.096-2.15.36-.554.635-1.218.5-1.891-.163-.589-.822-.768-1.344-.896-.58-.778-1.639-.934-2.527-.683-1.303.341-2.523 1.185-3.165 2.386m-11.133.241c.57.864.738 1.898.794 2.91 1.994.14 4.093.509 5.672 1.829-1.6-2.208-3.989-3.69-6.466-4.739m46.921.982c-.16.318-.375.637-.303 1.013.29.548 1.115.685 1.215 1.354.057.636-.898.777-.769 1.418.655-.012 1.386-.332 1.575-1.013.462-1.137-.285-2.993-1.718-2.772m-18.31 2.15c-.02 2.133.754 4.174.961 6.287a.841.841 0 01-.428-.388c-.749-1.193-1.436-2.432-2.316-3.537-.212-.293-.534-.47-.861-.609-.681 1.029-.876 2.278-1.107 3.467-.15 1.101-.36 2.268.012 3.347.127.532 1.03.805 1.217.173.43-1.45.079-2.991.41-4.458.52 1.03 1.045 2.063 1.631 3.06.31.466.613 1 1.147 1.237.61.175 1.095-.436 1.4-.882.818-1.535.49-3.397-.014-4.98-.404-1.056-.908-2.293-2.053-2.717m4.222 1.721c-.052.693.864.852 1.344 1.115a3.38 3.38 0 01-1.129 1.603c-.203 1.257-.777 2.593-.265 3.847.25.699 1.03 1.066 1.744.944 1.27-.193 2.446-.846 3.41-1.678.103-.333-.086-.709-.317-.94-1.068-.213-2.119.24-3.176.356.133-.548.047-1.402.738-1.577.831-.153 1.737.139 2.514-.301-.084-.332-.028-.756-.339-.978-.609-.374-1.354-.157-2.019-.145.1-.35.21-.695.312-1.043 1.116.012 2.296.09 3.336-.395.014-.673-.436-1.262-1.115-1.336-1.683-.301-3.409.108-5.038.528m-19.67-.446c-.32.523-.316 1.16-.378 1.75-.093 1.683-.19 3.374-.047 5.058.02.37.19.821.591.914.38.164.763-.075 1.125-.183.076-2.204.016-4.423-.328-6.603-.11-.432-.395-1.179-.964-.936m5.807.117c-1.11.247-2.386.596-3.005 1.64-.371.565-.208 1.485.49 1.7 1.577.547 3.337.1 4.894.745.361.123.536.474.723.78-.275.46-.763.689-1.231.9a29.391 29.391 0 01-.497-.296c.601.207.862-.415.844-.867-1.273-.496-2.698-.808-4.045-.454-.499.124-.979.554-.916 1.106-.015 1.053.91 1.82 1.838 2.116 1.371.452 2.98.423 4.236-.344.992-.6 1.052-1.972.791-2.983-.48-1.004-1.705-1.233-2.705-1.346-1.07-.178-2.246.04-3.222-.514 2.012-.629 4.188-.484 6.186-1.173.06-.333.099-.731-.287-.87-1.291-.534-2.75-.371-4.094-.14m21.614 1.587c-.526 1.163-.982 2.39-1.1 3.67-.093.56.309 1.038.313 1.58-.742 2.07-1.533 4.23-1.354 6.462.032.786.673 1.46 1.488 1.358.328-2.203.956-4.347 1.607-6.472 1.16-.106 2.354-.418 3.252-1.197 1.459-1.19 2.172-3.222 1.766-5.058-.109-.526-.414-1.038-.902-1.287-.502-.181-1.049.034-1.458.331-1.46 1.09-2.423 2.674-3.544 4.08-.273-1.953 1.796-3.307 1.573-5.253-.872.185-1.263 1.075-1.641 1.786m8.788-1.043c-.75.35-1.567.982-1.504 1.9-.043.559.508.904.986 1.017 1.45.35 2.999.07 4.42.568.417.119.66.498.903.826-.285.436-.75.679-1.201.902a55.126 55.126 0 01-.499-.284c.575.15.846-.423.774-.881-1.2-.448-2.517-.74-3.795-.493-.49.085-1.024.362-1.124.894-.131.856.405 1.696 1.149 2.087 1.275.691 2.85.76 4.214.296.665-.23 1.327-.69 1.488-1.416.22-.87.271-2.043-.576-2.598-.98-.649-2.212-.663-3.343-.749-.675-.074-1.422-.008-1.998-.438 1.838-.594 3.814-.468 5.67-.982.25-.054.585-.213.532-.53-.166-.563-.815-.73-1.33-.802a9.124 9.124 0 00-4.766.683m-42.233 2.376c-.17.141-.189.641.099.623.166-.14.188-.645-.099-.623m-6.367.165c-.01.806.062 1.611.06 2.419a9.77 9.77 0 002.673-.008c-.411-.195-.9-.316-1.155-.726-.347-.39-.315-.936-.297-1.42-.428-.088-.856-.179-1.281-.265z"/><path d="M106.868 6.727c-.077-1.105 1.034-1.756 1.916-2.13-.657.695-1.243 1.453-1.916 2.13zm3.684-1.644c.444-.27 1.022-.415 1.508-.158.392.496.069 1.16-.387 1.48-.943.693-2.142.99-3.299.99.569-.897 1.262-1.751 2.178-2.312zM161.79 17.67c5.377-3.541 11.614-5.892 18.066-6.307 3.38 2.436 6.729 4.917 10.1 7.366-.288 1.608-.561 3.22-.848 4.828 1.629-.437 3.143-1.35 4.778-1.685 2.578 1.099 5.094 2.34 7.66 3.47 2.201 4.916 2.54 10.428 2.434 15.743 1.235.022 2.47.089 3.708.087.163-2.5.478-4.984.681-7.479 7.509.372 15.015.788 22.522 1.19.018-2.24-.029-4.476-.045-6.716 9.042-1.34 18.097-2.59 27.142-3.903 1.376-.17 2.74-.44 4.122-.568-2.202 9.359-4.452 18.703-6.67 28.055-1.863 7.746-3.663 15.508-5.567 23.243 2.211 3.12 2.298 7.354.88 10.817-.7 1.683-1.762 3.328-3.381 4.25-1.077.707-2.412.67-3.638.85-1.086.094-2.133.412-3.208.554-11.299 1.352-22.591 2.748-33.894 4.07-1.74 2.256-4.48 3.706-7.32 3.895-1.874.112-3.746-.62-5.124-1.878-2.373-2.156-3.71-5.386-3.652-8.58a39.629 39.629 0 00-3.286-1.528 274.795 274.795 0 01-2.256 4.724c-.822 1.65-1.804 3.353-3.379 4.375-4.614 1.081-9.224 2.194-13.85 3.23A118.009 118.009 0 00165.387 96c-3.288 1.215-6.568 2.45-9.857 3.666-.337.104-.66.313-1.02.29-3.194-1.286-5.594-3.976-7.276-6.907-.855-1.544-1.709-3.14-2.105-4.87.34-1.961.846-3.896 1.121-5.868-7.687-.627-15.384-1.14-23.076-1.7.314-1.705.673-3.404.914-5.12-1.414-.024-2.826-.112-4.238-.094-.237 1.139-.406 2.29-.63 3.433-6.306-.296-12.611-.549-18.917-.8.352-1.902.826-3.78 1.254-5.666-.693.126-1.296.532-1.983.69-3.286 1.023-6.972-.174-9.388-2.53-1.055 3.386-2.777 6.606-5.257 9.163-1.673 1.631-3.668 2.985-5.922 3.656-3.105.866-6.45.976-9.575.143-1.3-.332-2.517-.908-3.72-1.483.315 1.883.946 3.702 1.23 5.59a4941.349 4941.349 0 00-28.079 12.565c-1.912-15.65-3.678-31.318-5.602-46.967-5.216 1.804-10.453 3.545-15.686 5.307-2.812-10.972-5.572-21.96-8.354-32.94a34.274 34.274 0 01-.645-2.693c16.038.97 32.071 1.991 48.108 2.973.774 3.232 1.497 6.476 2.304 9.7 2.927-3.4 7.113-5.672 11.544-6.335 3.05-.366 6.109.679 8.588 2.418 4.162 2.893 6.994 7.282 9.04 11.838 1.89-2.475 4.492-4.438 7.49-5.344 2.753-.863 5.909-.96 8.518.408 2.61 1.432 4.646 3.847 5.761 6.589 2.428-.026 4.857-.235 7.28-.416.403-4.269.809-8.537 1.227-12.805 8.953-1.334 17.89-2.777 26.838-4.136 5.034-.806 10.082-1.543 15.113-2.367.45-2.575.959-5.14 1.402-7.717m18.886-3.21a55.462 55.462 0 00-.343 2.93c.725.513 1.542.875 2.31 1.32 1.83.969 3.611 2.027 5.461 2.957.131-.596.253-1.195.386-1.792-2.6-1.813-5.215-3.601-7.814-5.415m-14.822 6.974c-.394 2.276-.721 4.57-1.173 6.834a80.352 80.352 0 01-4.36 2.655c-.067.458-.131.918-.192 1.378-.323 2.1-.616 4.202-.932 6.304-.062.423-.154.845-.166 1.277l-.035-.106c-.233 2.024-.592 4.031-.851 6.052a88.41 88.41 0 00-.396 2.617c-2.515-.197-5.028-.51-7.55-.566.128 1.205-.019 2.412-.16 3.61 1.535.78 3.096 1.51 4.637 2.281-.942 2.045-1.549 4.22-2.045 6.41-.097.428-.189.856-.283 1.286-1.222.212-2.447.41-3.67.612-.304 1.406-.597 2.814-.74 4.247-.106.996-.184 1.994-.15 2.997-.032 1.552.118 3.101.287 4.642 1.16.361 2.29.803 3.437 1.203.227 1.67.617 3.312.828 4.985-.515 1.055-.808 2.254-1.202 3.377l-.026.002c-.229.828-.546 1.625-.793 2.449-.147.28.048.57.154.83.348.724.706 1.448 1.077 2.163.396.707.824 1.408 1.39 1.994.69.701 1.567 1.165 2.403 1.667 1.546-1.976 3.047-3.993 4.664-5.913.446.13.91.052 1.362-.02.928-.085 1.81-.396 2.7-.647 1.92 1.87 3.85 3.73 5.754 5.616 1.82-.683 3.325-1.988 4.622-3.406 1.557-1.784 2.812-3.843 3.632-6.069a9.407 9.407 0 00-.33-.632l-.146-.037.072-.102c-.63-1.768-1.526-3.457-2.165-5.23.604-.868 1.022-1.847 1.466-2.8.21-.449.408-.903.655-1.33.647.132 1.262.397 1.89.608 1.336.444 2.66.924 3.998 1.36.785-.874 1.351-1.92 1.817-2.993l.039-.01c1.821-4.258 3.143-8.726 4.009-13.274.112-.777.225-1.556.243-2.344-.388-.166-.755-.381-1.159-.508-1.103-.558-2.23-1.07-3.349-1.597.11-.821.29-1.633.356-2.46.14-1.565.163-3.14.066-4.709 2.035-1.326 4.036-2.704 6.07-4.027.424-1.864.513-3.779.475-5.683-.093-1.723-.418-3.423-.898-5.08l-.046.01c-.145-.496-.298-.994-.533-1.454-.229-.605-.548-1.17-.853-1.736-2.441.832-4.86 1.726-7.304 2.547-1.177-1.715-3.081-2.747-5.074-3.211.026-.806.01-1.613 0-2.419.072-2.26.12-4.52.149-6.78-4.006.485-7.991 1.449-11.67 3.13m14.227-1.597c-.193 1.818-.404 3.632-.563 5.454.701.305 1.39.635 2.105.908 2.021-.792 4.042-1.595 6.075-2.358-2.527-1.356-5.08-2.666-7.617-4.004m14.924 4.154c.223 1.009.462 2.015.6 3.041 1.987.868 4.002 1.67 6.003 2.507-.297-1.052-.589-2.153-1.165-3.081-1.808-.832-3.614-1.671-5.438-2.467m-71.903 10.801l-.024-.018c-.056 3.363.056 6.723.034 10.086 2.959.058 5.91.345 8.866.45-.058.916-.212 1.821-.323 2.733-1.201 9.269-2.358 18.545-3.592 27.809 5.095.72 10.219 1.251 15.307 2.019 0-10.851.07-21.7.066-32.551 3.439.134 6.884.253 10.325.309l.032.046c.667-5.4 1.47-10.785 2.097-16.19-10.927 1.782-21.867 3.495-32.788 5.307M15.972 29.62l-.002.34.028.01c.067.395.147.79.247 1.178 1.631 6.44 3.283 12.874 4.914 19.312.082.353.13.717.176 1.079.27-.03.537-.075.798-.145 4.349-1.211 8.712-2.36 13.06-3.57.302-.08.61-.132.916-.186 2.166 14.386 4.301 28.776 6.442 43.167.852-.15 1.635-.523 2.455-.78 5.897-1.998 11.76-4.096 17.67-6.052-1.185-4.005-2.569-7.952-3.818-11.94-3.116-9.497-6.119-19.032-9.282-28.511l.297-.109c2.557-.77 5.154-1.442 7.663-2.348l.173.11c-.856-3.808-1.892-7.574-2.768-11.379-2.561-.038-5.122.063-7.681-.066-10.43.002-20.859-.074-31.288-.11m220.302 3.027l.124.072c-.016 4.403.17 8.8.21 13.203a218.083 218.083 0 00-1.71-3.43c-3.35-.065-6.699-.153-10.05-.153l-.102-.103c-.502 10.966-1.026 21.927-1.474 32.895 3.661-.085 7.321-.288 10.987-.3.179-2.43.382-4.857.573-7.285.821 1.589 1.775 3.107 2.609 4.69.143.326.558.117.834.159 2.655.042 5.315-.05 7.97.012 2.756-13.854 5.48-27.714 8.22-41.572-6.063.607-12.13 1.173-18.191 1.812m-40.082-1.77c.298 2.967.462 5.968.117 8.939 2.027.365 4.061.683 6.088 1.044a36.238 36.238 0 00-.18-8.37c-2.01-.532-4.016-1.083-6.025-1.613M70.243 35.304c-2.446.864-4.52 2.746-5.666 5.064-.01-.05-.03-.15-.043-.2-2.372 3.386-3.187 7.606-3.402 11.67-.179 5.325.872 10.704 3.095 15.551 1.575 3.292 3.718 6.448 6.777 8.525 1.824 1.284 4.118 2.013 6.354 1.7 2.15-.346 4.194-1.567 5.413-3.38.924-1.148 1.987-2.293 2.54-3.697.124-.12.18-.293.279-.432.305-.745.699-1.456.881-2.246.796-2.163 1.322-4.453 1.356-6.767.069-4.7-.687-9.42-2.284-13.844-1.388-3.819-3.621-7.43-6.863-9.945-2.312-1.842-5.528-3.043-8.437-1.999m140.277 6.468l.15.123-.16-.123c-.401 3.49-.825 6.976-1.239 10.462-.787-1.505-1.5-3.048-2.294-4.55l.028.307c-.381.406-.486.97-.699 1.467-.36.994-.845 1.942-1.139 2.958-.522-2.117-1.105-4.22-1.617-6.34-3.509.085-7.02.105-10.527.274a14.27 14.27 0 01-.211-.157c.397 3.496.96 6.975 1.416 10.464.866 6.124 1.72 12.249 2.569 18.375 2.71.01 5.415.105 8.123.143l-.034-.046c.924-1.91 1.852-3.819 2.754-5.74.852 2.6 1.898 5.14 2.812 7.722 2.59.006 5.179-.118 7.768-.112l-.149-.205.135.179c1.516-11.946 3.075-23.888 4.588-35.835-4.09.227-8.182.415-12.274.634M95.691 44.681l-.154.02.04.229-.245.022c.004.068.008.207.012.275-.428.235-.647.705-.818 1.14l-.225-.045.105.404-.304-.002c.02.104.063.315.085.42l-.277-.047c.008.077.028.227.036.304-.073.054-.221.162-.293.217-1.027 1.992-1.571 4.212-1.792 6.435-.265 3.32.239 6.852 2.177 9.638 1.125 1.651 2.981 2.937 5.036 2.91 1.55.061 3.031-.588 4.24-1.516l-.197-.074.23.014c.405-.396.861-.755 1.159-1.247.172-.02.289-.121.349-.3.711-.79 1.384-1.625 1.88-2.569 1.868-3.678 2.511-7.998 1.651-12.044-.57-2.615-1.87-5.293-4.264-6.68-1.065-.71-2.405-.778-3.636-.634-1.938.324-3.674 1.537-4.795 3.13m21.166 4.49c.18 1.474.243 2.964.5 4.428-2.115-.182-4.218-.49-6.335-.662.004.685.016 1.372-.02 2.057-.195 3.655-1.218 7.24-2.895 10.487a33.096 33.096 0 01-2.475 3.551c-.285 1.533-.39 3.098-.634 4.638 2.641.175 5.29.141 7.932.306 1.221.024 2.44.102 3.662.08.076-.002.154 0 .235.002.01-1.936.215-3.883.138-5.811.591 1.105 1.413 2.07 1.989 3.186 2.368.28 4.767.19 7.145.343-.022-.13-.042-.261-.06-.39.54-7.697 1.01-15.404 1.504-23.108-3.563.304-7.127.579-10.686.892m70.077 26.013c1.557.787 3.126 1.547 4.673 2.35 1.382-2.48 2.016-5.29 2.555-8.055-1.25-.729-2.545-1.378-3.773-2.143-.926 2.696-1.629 5.584-3.455 7.848m-8.547 2.692c.498 1.548 1.248 3.003 1.858 4.51 2.148.965 4.299 1.917 6.452 2.874-.002-1.127-.066-2.252-.1-3.38a1554.82 1554.82 0 01-8.21-4.004m61.661 1.219c-.124 2.902-.323 5.801-.48 8.702 1.758-.103 3.501-.362 5.257-.507.13-.54.267-1.08.398-1.62-.942.088-1.882.202-2.825.28.05-.584.11-1.167.17-1.751.742-.062 1.488-.135 2.237-.17.2-.553.361-1.118.522-1.68-.872.064-1.741.145-2.611.223.058-.633.118-1.264.189-1.892.978-.083 1.956-.177 2.938-.22.195-.658.356-1.323.488-1.996-2.093.233-4.192.39-6.283.63m-39.653.204c-1.057.237-2.015.82-2.776 1.579-1.864 1.785-2.813 4.383-2.865 6.936-.004 1.801.452 3.708 1.71 5.06a4.13 4.13 0 003.059 1.394c1.428.024 2.758-.706 3.79-1.646 2.286-2.28 3.266-5.726 2.674-8.882-.306-1.505-1.059-3.003-2.372-3.865-.93-.639-2.128-.797-3.22-.576m35.256.21c-.13 1.724-.08 3.46-.267 5.18-.315-1.556-.717-3.092-1.048-4.643-1.423.167-2.85.281-4.275.404-.04 2.75.062 5.498.04 8.245a78.48 78.48 0 012.429-.213c.178-1.64.315-3.286.438-4.929.39 1.64.813 3.27 1.22 4.907 1.116-.182 2.249-.255 3.355-.49.237-2.91.513-5.817.798-8.721-.898.082-1.804.106-2.69.26m-10.676.913a418.882 418.882 0 00-.21 8.701c.877-.058 1.753-.156 2.632-.213.346-2.93.607-5.87.906-8.804-1.11.107-2.221.191-3.328.316m-6.607.588c-.098 2.9-.237 5.801-.34 8.702 1.763-.127 3.518-.334 5.282-.464.052-.518.082-1.039.102-1.559-.84.05-1.679.074-2.517.13.23-2.38.53-4.752.778-7.128-1.103.09-2.208.175-3.305.32m-4.742.62c-.11 1.725-.123 3.455-.237 5.18-.384-1.516-.721-3.043-1.073-4.566-1.444.109-2.884.244-4.323.392.105 2.746.005 5.494.109 8.238a35.987 35.987 0 012.42-.223c.155-1.563.252-3.13.43-4.688.44 1.534.82 3.089 1.2 4.642 1.12-.117 2.237-.278 3.354-.436.25-2.919.538-5.831.8-8.748-.896.052-1.786.165-2.68.209m-52.817 7.964c-.851 1.76-1.85 3.447-2.68 5.217 2.082-.376 4.137-.878 6.218-1.26.084-1.02.11-2.044.15-3.065-1.24-.257-2.448-.639-3.688-.892zm-72.341-76.87c1.296-.49 2.69-.623 4.054-.784-.014 1.44-.151 2.877-.173 4.317a17.319 17.319 0 01-3.134-1.744c-.444-.357-.984-.699-1.16-1.271.027-.241.16-.464.413-.518m2 .952c.007.576 1.057.343.553-.135-.233-.1-.416-.054-.552.135z"/><path d="M143.892 15.515c.203-.241.454-.342.753-.302.872.127 1.7.472 2.585.533.155.112.31.225.468.337-1.068.139-2.203.406-3.246-.004-.289-.066-.411-.345-.56-.564zM69.64 18.636c3.024-.448 6.101.549 8.632 2.172 2.661 1.741 4.91 4.192 6.175 7.13-.563.452-1.143.878-1.714 1.32-2.211-2.228-5.12-3.724-8.181-4.377-2.975-.633-6.203-.29-8.875 1.205-1.534.818-2.824 2.017-3.959 3.32a55.04 55.04 0 00-1.263-.684c.616-2.593 1.747-5.136 3.577-7.107 1.455-1.59 3.46-2.706 5.609-2.979zm27.78 11.661c1.937-.623 4.105-.33 5.862.669 1.878 1.064 3.31 2.77 4.367 4.626-.564.225-1.109.78-1.721.723-1.507-1.093-3.192-2.013-5.042-2.344-2.41-.473-4.978.327-6.778 1.974a15.404 15.404 0 01-1.566-.73c.735-2.277 2.587-4.191 4.879-4.918zm66.716 6.323c1.554-2.563 4.22-4.556 7.253-4.863 2-.235 4.052.476 5.53 1.832.432.414.828.864 1.183 1.348.998 1.442 1.623 3.111 2.003 4.817.635 2.896.622 5.889.414 8.832-.185.096-.368.195-.547.293a18.899 18.899 0 00-2.68-8.344c-1.05-1.705-2.414-3.254-4.14-4.299-.769-.42-1.59-.773-2.464-.886-1.87-.323-3.808.268-5.315 1.382-.323.217-.647.436-.97.65l-.077-.208c-.066-.184-.13-.37-.19-.554zm3.051 6.896c.747-.394 1.567-.603 2.398-.721 1.519-.01 3.011.683 3.96 1.872 1.624 2 2.169 4.642 2.297 7.157.059 2.304-.166 4.614-.775 6.84a23.759 23.759 0 01-1.215 3.45c-1.077 2.363-2.561 4.673-4.803 6.075-1.529.976-3.612 1.179-5.205.245-1.22-.687-2.06-1.878-2.625-3.132-.331-.787-.603-1.6-.777-2.436-.354-1.58-.398-3.204-.338-4.813.22-3.682 1.227-7.36 3.152-10.522.996-1.599 2.26-3.1 3.93-4.015m5.258 4.951c-1.11 1.416-1.895 3.064-2.51 4.745-1.233 3.626-1.801 7.627-.8 11.377.04.006.118.018.156.022 1.685-1.972 2.738-4.419 3.37-6.918.732-3.005.955-6.233.037-9.222-.063-.002-.191-.002-.253-.004m-9.692 3.07c1.878 1.02 3.706 2.137 5.616 3.101.098-.331.205-.659.313-.988-1.643-1.352-3.378-2.59-5.015-3.947-.392.564-.655 1.2-.914 1.834m-1.467 9.163c2.019-.207 4.04-.402 6.06-.572.097-1.316.318-2.618.559-3.911l-.056-.127c-1.919-.892-3.867-1.721-5.793-2.597-.579 2.344-1.163 4.785-.77 7.207zM75.554 47.075c.978-.984 2.497-1.356 3.813-.902 1.793.593 3.085 2.118 4.03 3.688 1.853 3.254 2.578 7.143 2.044 10.847-.321 1.975-1.055 4.056-2.722 5.291-1.241.91-2.993.854-4.274.054-2.045-1.22-3.315-3.378-4.15-5.546-1.033-2.741-1.388-5.753-.944-8.651 1.629-.2 3.326.05 4.746.902 1.288.75 2.318 1.874 3.1 3.133-.157-2.824-1.282-5.72-3.516-7.542-.63-.547-1.376-.924-2.127-1.274zm25.716 1.451c.95-.46 2.13-.495 3.035.096 1.273.826 1.944 2.298 2.251 3.738.398 2.216.113 4.638-1.16 6.536-.64.914-1.565 1.758-2.726 1.86-1.34.171-2.576-.723-3.226-1.835-1.374-2.286-1.35-5.197-.422-7.642 1.988.079 3.75 1.334 4.833 2.95.058-1.405-.08-2.891-.896-4.084-.428-.665-1.065-1.151-1.69-1.62z"/><path d="M155.305 64.706a7.88 7.88 0 01.728-.527c.15.916.32 1.832.572 2.728.554 2.071 1.404 4.108 2.778 5.775 1.18 1.464 2.856 2.571 4.725 2.89 2.165.398 4.403-.299 6.216-1.478 2.68-1.687 4.62-4.3 6.119-7.044l.59.19c-.626 2.445-1.703 4.771-3.073 6.886-.988 1.427-2.153 2.742-3.533 3.8-2.38 1.82-5.444 2.913-8.457 2.476.93.964 2.125 1.677 3.451 1.92 1.22.225 2.473.072 3.666-.231.054.223.11.448.17.673-1.72.966-3.727 1.554-5.71 1.253-1.822-.237-3.467-1.247-4.692-2.589a12.167 12.167 0 01-1.738-2.573c-1.8-3.592-2.17-7.714-2.023-11.677.049-.823.01-1.669.211-2.472zm45.105 16.437c.724.693 1.455 1.448 1.752 2.432.424 1.444.312 3-.054 4.443a15.4 15.4 0 01-1.969 4.622c-.803-1.482-1.351-3.127-1.297-4.828a16.182 16.182 0 011.569-6.67z"/><path d="M106.125 5.467c.642-1.201 1.862-2.045 3.165-2.386.888-.251 1.947-.095 2.527.683.522.128 1.181.307 1.344.896.135.673-.14 1.337-.5 1.892-1.08 1.625-3.164 2.583-5.096 2.15-.177.298-.404.793-.836.558-.392-.489-.185-1.196-.576-1.68-.44-.612-.372-1.472-.028-2.113m.743 1.26c.673-.677 1.26-1.435 1.916-2.13-.882.374-1.993 1.025-1.916 2.13m3.684-1.644c-.916.56-1.61 1.415-2.178 2.312 1.157 0 2.356-.297 3.299-.99.456-.32.779-.984.387-1.48-.486-.257-1.064-.113-1.508.158zm31.361 1.607c1.433-.22 2.18 1.635 1.718 2.772-.189.681-.92 1-1.575 1.013-.129-.641.826-.782.77-1.418-.101-.67-.927-.806-1.216-1.354-.072-.376.143-.695.303-1.013zm-27.953 3.542c1.344-.231 2.803-.394 4.094.14.386.139.348.537.287.87-1.998.69-4.174.544-6.186 1.173.976.555 2.153.336 3.222.514 1 .113 2.225.342 2.705 1.346.261 1.01.201 2.383-.791 2.983-1.256.767-2.865.796-4.236.344-.929-.296-1.853-1.063-1.838-2.116-.063-.552.417-.982.916-1.106 1.347-.354 2.772-.042 4.045.454.018.452-.243 1.074-.844.867.163.099.33.2.497.296.468-.211.956-.44 1.23-.9-.186-.306-.36-.657-.722-.78-1.557-.644-3.317-.198-4.893-.745-.7-.215-.862-1.135-.49-1.7.618-1.044 1.894-1.393 3.004-1.64m-1.836 5.702c1.063.589 2.325.296 3.461.143-.562-.476-1.333-.432-2-.653-.472-.086-.958-.31-1.436-.189-.364.075-.328.585-.025.7zm23.45-4.115c.378-.711.77-1.601 1.641-1.786.223 1.946-1.846 3.3-1.573 5.253 1.121-1.406 2.083-2.99 3.544-4.08.41-.297.956-.512 1.458-.331.488.249.793.76.902 1.287.406 1.836-.307 3.869-1.766 5.058-.898.78-2.093 1.09-3.252 1.197-.65 2.125-1.28 4.269-1.607 6.472-.815.103-1.456-.572-1.488-1.358-.179-2.231.612-4.393 1.354-6.462-.004-.542-.406-1.02-.314-1.58.119-1.28.575-2.507 1.101-3.67m1.98 4.517c1.385-.189 2.666-1.189 3.028-2.56.118-.493.178-1.136-.312-1.45-1.119 1.172-1.94 2.598-2.715 4.01zm6.808-5.56a9.124 9.124 0 014.767-.683c.514.072 1.163.24 1.33.802.052.317-.284.476-.533.53-1.856.514-3.832.388-5.67.982.576.43 1.323.364 1.998.438 1.131.086 2.362.1 3.343.75.847.554.795 1.727.576 2.597-.16.727-.823 1.187-1.488 1.416-1.364.464-2.939.395-4.214-.296-.744-.391-1.28-1.23-1.15-2.087.101-.532.635-.81 1.125-.894 1.278-.247 2.596.045 3.795.493.072.458-.199 1.03-.774.881.165.095.33.19.499.284.452-.223.916-.466 1.2-.902-.242-.328-.485-.707-.901-.826-1.422-.498-2.97-.219-4.421-.568-.478-.113-1.029-.458-.986-1.017-.063-.918.755-1.55 1.504-1.9m-.47 4.739c.149.219.271.498.56.564 1.043.41 2.178.143 3.246.004-.158-.112-.313-.225-.468-.337-.885-.06-1.713-.406-2.585-.533-.299-.04-.55.06-.753.302z" fill="#fefefe"/><path d="M168.792 7.749c3.867-1.607 8.035-2.641 12.24-2.555a24.224 24.224 0 0113.09 3.829c5.098 3.203 8.802 8.253 11.194 13.713.357.898.817 1.77 1.002 2.728.826.038 1.631-.18 2.439-.328 14.386-2.635 28.768-5.29 43.169-7.858 2.28-.39 4.551-.831 6.841-1.17 2.101-.294 4.351-.238 6.287.72 1.905.864 3.273 2.692 3.75 4.707.469 2.01.274 4.126-.289 6.094-3.59 14.76-7.08 29.542-10.597 44.32-.085.4-.251.856-.01 1.24 1.831 3.334 2.225 7.315 1.596 11.029-.614 3.618-2.243 7.109-4.847 9.722a12.44 12.44 0 01-3.9 2.714c-1.897.866-4.024.86-6.04 1.233-14.867 2.13-29.733 4.255-44.6 6.384-2.844.394-5.787.281-8.54-.577-2.278-.749-4.444-2.063-5.858-4.037-2.384 1.838-4.805 3.652-7.458 5.088-5.261 2.91-11.265 4.736-17.321 4.387-4.194-.245-8.344-1.533-11.878-3.819-6.178-3.967-10.344-10.491-12.534-17.399-8.593-.787-17.204-1.412-25.802-2.16-5.483-.435-10.965-.897-16.449-1.341-.807-.062-1.617-.189-2.426-.103-.251.549-.701.959-1.113 1.38-1.89 1.885-4.32 3.192-6.906 3.827-3.417.868-7.03.781-10.457.02.15 1.324.12 2.838-.808 3.895-1.082 1.312-2.71 1.95-4.208 2.651-8.6 4.036-17.2 8.063-25.8 12.099-1.96.956-4.18 1.675-6.375 1.245-1.597-.323-2.86-1.539-3.574-2.96-.783-1.55-1.127-3.279-1.331-4.988-1.039-12.265-2.294-24.51-3.423-36.767-2.941.906-5.787 2.109-8.716 3.057-1.56.45-3.296.223-4.666-.659-1.955-1.245-2.973-3.463-3.546-5.63C7.42 49.725 3.906 37.972.652 26.145c-.66-2.184-.988-4.602-.155-6.784.563-1.627 1.93-2.9 3.532-3.485 1.892-.719 3.959-.65 5.937-.432 13.519 1.473 27.011 3.168 40.51 4.8 1.15.12 2.292.345 3.45.373a19.963 19.963 0 016.95-6.384c3.673-1.987 8.082-2.386 12.113-1.402 4.847 1.149 9.138 4 12.627 7.488 2.039 2.17 3.883 4.554 5.24 7.214 3.554-2.087 7.708-3.401 11.86-2.893 4.045.42 7.824 2.712 10.106 6.074.074-.032.22-.092.295-.122.781-1.908 2.36-3.551 4.353-4.178 1.526-.535 3.151-.637 4.726-.958 3.268-.607 6.55-1.121 9.837-1.625.199 1.02.817 2.07 1.884 2.354.707.175 1.663.2 2.117-.482.39-.816.424-1.744.649-2.61 4.81-.677 9.615-1.388 14.422-2.099 4.922-5.532 10.817-10.354 17.687-13.245m-7.003 9.921c-.443 2.577-.952 5.142-1.402 7.717-5.031.824-10.08 1.561-15.113 2.367-8.949 1.36-17.885 2.802-26.838 4.136-.418 4.268-.824 8.536-1.228 12.805-2.422.18-4.85.39-7.279.416-1.115-2.742-3.152-5.157-5.761-6.589-2.61-1.368-5.765-1.271-8.519-.408-2.997.906-5.598 2.869-7.488 5.344-2.047-4.556-4.88-8.945-9.041-11.838-2.48-1.74-5.538-2.784-8.588-2.418-4.43.663-8.617 2.935-11.544 6.335-.807-3.224-1.53-6.468-2.304-9.7-16.037-.982-32.07-2.002-48.108-2.973.177.906.396 1.804.645 2.692 2.782 10.982 5.542 21.97 8.354 32.94 5.233-1.76 10.47-3.502 15.686-5.306 1.924 15.65 3.69 31.317 5.602 46.967a4941.349 4941.349 0 0128.08-12.564c-.285-1.889-.916-3.708-1.231-5.59 1.203.574 2.42 1.15 3.72 1.482 3.125.833 6.47.723 9.575-.143 2.254-.67 4.249-2.025 5.922-3.656 2.48-2.557 4.202-5.777 5.257-9.163 2.416 2.356 6.102 3.553 9.388 2.53.687-.158 1.29-.564 1.983-.69-.428 1.886-.902 3.764-1.254 5.666 6.306.251 12.61.504 18.916.8.225-1.143.394-2.294.63-3.433 1.413-.018 2.825.07 4.24.094-.242 1.716-.601 3.415-.915 5.12 7.692.56 15.389 1.073 23.076 1.7-.275 1.972-.781 3.907-1.12 5.867.395 1.732 1.249 3.327 2.104 4.871 1.682 2.93 4.082 5.62 7.276 6.906.36.024.683-.185 1.02-.29 3.289-1.214 6.569-2.45 9.857-3.665a115.65 115.65 0 012.378 3.774c4.626-1.036 9.236-2.149 13.85-3.23 1.575-1.022 2.557-2.725 3.379-4.375a274.795 274.795 0 002.256-4.724c1.115.464 2.217.964 3.286 1.529-.058 3.193 1.28 6.423 3.652 8.579 1.378 1.257 3.25 1.99 5.124 1.878 2.84-.189 5.58-1.64 7.32-3.895 11.303-1.322 22.595-2.718 33.894-4.07 1.075-.142 2.122-.46 3.208-.554 1.226-.18 2.561-.143 3.638-.85 1.619-.922 2.682-2.567 3.38-4.25 1.419-3.463 1.332-7.697-.88-10.817 1.905-7.735 3.705-15.497 5.569-23.243 2.217-9.352 4.467-18.696 6.669-28.055-1.382.129-2.746.398-4.122.568-9.045 1.312-18.1 2.564-27.142 3.903.016 2.24.063 4.476.045 6.715-7.507-.401-15.013-.817-22.522-1.189-.203 2.495-.518 4.98-.68 7.479-1.238.002-2.474-.065-3.709-.087.107-5.315-.233-10.827-2.434-15.744-2.566-1.129-5.082-2.37-7.66-3.469-1.635.336-3.15 1.248-4.778 1.685.287-1.609.56-3.22.847-4.828-3.37-2.45-6.719-4.93-10.1-7.366-6.451.415-12.688 2.766-18.066 6.307m-92.148.966c-2.15.273-4.154 1.388-5.609 2.979-1.83 1.97-2.96 4.514-3.577 7.107.424.22.843.452 1.263.685 1.135-1.304 2.425-2.503 3.96-3.32 2.671-1.495 5.899-1.839 8.874-1.206 3.061.653 5.97 2.15 8.181 4.377.57-.442 1.151-.868 1.714-1.32-1.266-2.938-3.514-5.389-6.175-7.13-2.531-1.623-5.608-2.62-8.631-2.172m27.78 11.66c-2.292.728-4.144 2.642-4.88 4.92.51.267 1.03.52 1.567.73 1.8-1.648 4.367-2.448 6.778-1.975 1.85.33 3.535 1.25 5.042 2.344.612.058 1.157-.498 1.721-.723-1.056-1.857-2.489-3.562-4.367-4.626-1.757-.999-3.925-1.292-5.861-.67z" fill="#ff5a18"/><path d="M272.109 11.12c.854-.555 2.163-.203 2.493.805-.129.03-.382.094-.508.125-.29-.79-1.346-.94-1.907-.35.047.257-.014.603.28.735.608.286 1.361.237 1.9.67.717.638.197 1.974-.747 2.026-.945.271-1.929-.271-2.238-1.187.64-.372.729.526 1.241.659.42.17.866.036 1.286-.069.126-.297.38-.713.038-.968-.56-.392-1.322-.317-1.902-.677-.57-.422-.55-1.402.064-1.77z" fill="#191919"/><path d="M275.397 10.917c.27 0 .545 0 .822-.002.402 1.074.801 2.151 1.213 3.222.446-1.059.802-2.152 1.22-3.222.265.002.534 0 .805-.002-.006 1.41.014 2.822-.012 4.232l-.59-.012c-.033-1.163.06-2.33-.073-3.487-.313 1.181-.771 2.316-1.197 3.457l-.36.038c-.48-1.163-.876-2.358-1.32-3.533-.034 1.173-.012 2.346-.016 3.519-.124.008-.371.02-.494.026-.008-1.412-.012-2.824.002-4.236z" fill="#1e1a1a"/><path d="M137.555 16.336c.775-1.412 1.596-2.838 2.715-4.01.49.314.43.957.312 1.45-.362 1.371-1.643 2.371-3.027 2.56zm-25.431-.402c-.303-.114-.339-.624.025-.699.478-.12.964.103 1.436.19.667.22 1.438.176 2 .652-1.136.153-2.398.446-3.46-.143z" fill="#010101"/><path d="M102.13 13.152c.286-.022.264.482.098.623-.288.018-.27-.482-.099-.623z" fill="#1c1c1c"/><path d="M180.675 14.46c2.6 1.814 5.215 3.602 7.814 5.415-.133.597-.255 1.196-.386 1.792-1.85-.93-3.631-1.988-5.461-2.957-.768-.445-1.585-.807-2.31-1.32a55.8 55.8 0 01.343-2.93zm-17.923 37.077c.259-.633.522-1.27.914-1.834 1.637 1.357 3.372 2.595 5.015 3.947-.108.33-.215.657-.313.988-1.91-.964-3.738-2.081-5.616-3.101z" fill="#b4b5b8"/><g fill="#b4b5b9"><path d="M180.08 19.837c2.538 1.338 5.09 2.648 7.618 4.004-2.033.763-4.054 1.566-6.075 2.358-.715-.273-1.404-.603-2.105-.908.159-1.822.37-3.636.563-5.454zm14.925 4.154c1.824.796 3.63 1.635 5.438 2.467.576.928.868 2.029 1.165 3.081-2-.837-4.016-1.639-6.002-2.507-.139-1.026-.378-2.032-.6-3.04z"/><path d="M177.244 27.312c.095-.74.049-1.487.13-2.228.011.806.027 1.613 0 2.419 1.994.464 3.898 1.496 5.075 3.211 2.444-.821 4.863-1.715 7.304-2.547.305.567.624 1.131.853 1.736-.857-.004-1.663.31-2.476.53-3.739 1.05-7.463 2.145-11.211 3.156-1.478-1.356-3.53-2.067-5.53-1.832-3.033.307-5.699 2.3-7.253 4.863.06.185.124.37.19.554-1.713.468-3.412.985-5.13 1.43.316-2.1.609-4.204.932-6.303 5.474-1.544 10.942-3.107 16.423-4.624.223-.114.601-.084.693-.365zm18.948 3.565c2.01.53 4.016 1.08 6.024 1.613.38 2.772.448 5.586.181 8.37-2.027-.361-4.061-.679-6.088-1.044.345-2.971.18-5.972-.117-8.939zm-10.137 1.818c1.699-.428 3.354-1.034 5.084-1.338l.046-.01c.48 1.657.805 3.357.898 5.08-3.992 1.109-7.98 2.234-11.978 3.327-.38-1.706-1.005-3.375-2.003-4.817 2.642-.78 5.301-1.495 7.953-2.242zm-12.902 3.541c1.725 1.045 3.089 2.594 4.14 4.299-2.551.811-5.197 1.326-7.708 2.26-.831.118-1.65.327-2.398.72a3.303 3.303 0 00-.647.037c-2.806.73-5.568 1.641-8.396 2.276.259-2.02.618-4.028.851-6.052l.035.106.102.313c4.672-1.321 9.377-2.543 14.02-3.959zm2.816 17.239c3.194-.777 6.32-1.81 9.503-2.63-.066.828-.245 1.64-.356 2.461 1.12.526 2.246 1.039 3.349 1.597-4.467 1.25-8.915 2.571-13.398 3.76.609-2.225.834-4.535.775-6.84.038.551.085 1.102.127 1.652zM161.285 60.7c-.393-2.422.191-4.863.77-7.207 1.926.876 3.874 1.705 5.793 2.597l.056.127c-.241 1.293-.462 2.595-.558 3.91-2.021.171-4.042.366-6.06.573zm12.567 1.414c5.162-1.504 10.373-2.832 15.529-4.359-.866 4.548-2.188 9.016-4.01 13.274l-.038.01c-1.942.526-3.888 1.049-5.815 1.633-.628-.21-1.243-.476-1.89-.609-.247.428-.446.882-.655 1.33-1.016.195-2 .522-3.013.733 1.37-2.115 2.447-4.44 3.073-6.885-.146-.049-.443-.143-.59-.191-1.499 2.744-3.439 5.357-6.119 7.044-1.813 1.18-4.051 1.876-6.216 1.479-1.869-.32-3.546-1.427-4.725-2.89-1.374-1.668-2.224-3.705-2.778-5.776a178.26 178.26 0 014.604-1.283l.01-.322c.564 1.254 1.404 2.445 2.625 3.132 1.593.934 3.676.73 5.205-.245 2.242-1.402 3.726-3.712 4.803-6.075zM152.63 60.18a688.292 688.292 0 017.474-2.127c-.06 1.609-.016 3.234.338 4.813-4.188 1.08-8.308 2.414-12.504 3.459.142-1.433.435-2.84.739-4.247 1.223-.203 2.448-.4 3.67-.612.094-.43.186-.858.283-1.286zm1.265 7.48c.42-.102.822-.27 1.2-.482-.147 3.963.222 8.085 2.022 11.677-1.595.424-3.186.862-4.778 1.297-.211-1.673-.601-3.316-.828-4.985-1.147-.4-2.278-.842-3.437-1.203-.169-1.541-.32-3.09-.287-4.642 2.045-.52 4.061-1.143 6.108-1.662zm33.039 7.523c1.826-2.264 2.53-5.152 3.455-7.848 1.228.765 2.523 1.414 3.773 2.143-.539 2.764-1.173 5.574-2.555 8.055-1.547-.803-3.116-1.563-4.673-2.35zm-11.445 1.49c.004-.16.01-.321.018-.48.639 1.774 1.535 3.463 2.165 5.23l-.072.103c-5.865 1.69-11.75 3.315-17.606 5.036.454.06.912.117 1.374.139-.452.072-.916.15-1.362.02-.069-.012-.205-.04-.273-.052-2.75.679-5.468 1.502-8.184 2.304a74.712 74.712 0 01-1.077-2.164c-.106-.259-.3-.548-.154-.83.247-.823.564-1.62.793-2.448l.026-.002c.599-.036 1.183-.189 1.754-.372 1.977-.612 3.983-1.128 5.964-1.729 1.225 1.342 2.87 2.352 4.692 2.59 1.983.3 3.99-.288 5.71-1.254-.06-.225-.116-.45-.17-.673-1.193.303-2.447.456-3.666.23-1.326-.242-2.52-.955-3.45-1.92 3.012.438 6.076-.654 8.456-2.474a2.94 2.94 0 001.022-.105c1.346-.385 2.684-.8 4.04-1.149zm2.898 1.202a1637.23 1637.23 0 008.21 4.005c.034 1.127.098 2.252.1 3.379-2.153-.957-4.304-1.909-6.452-2.875-.61-1.506-1.36-2.96-1.858-4.51zM160.81 89.593c1.239.253 2.448.635 3.687.892-.04 1.02-.066 2.045-.15 3.065-2.081.382-4.136.884-6.217 1.26.83-1.77 1.828-3.457 2.68-5.217z"/></g><g fill="#fffac2"><path d="M123.102 34.792c10.921-1.812 21.86-3.525 32.788-5.307-.627 5.405-1.43 10.79-2.097 16.19l-.032-.046c-.58-.806-1.264-1.527-1.896-2.288.445-3.364.907-6.723 1.384-10.084.066-.383.044-.775-.003-1.159-1.3.324-2.633.47-3.95.68-8.011 1.277-16.022 2.558-24.039 3.792-.685-.633-1.4-1.23-2.155-1.778zM15.972 29.62c10.43.036 20.859.112 31.288.11 2.559.129 5.12.028 7.68.066.877 3.805 1.913 7.571 2.769 11.38l-.173-.11c-.988-.666-2.07-1.17-3.107-1.758-.474-2.38-1.163-4.715-1.704-7.083-1.149-.137-2.306-.064-3.46-.078-6.232-.016-12.465.074-18.696-.049l-7.627.002c-1.406-.022-2.812-.1-4.218-.038-.942-.65-1.655-1.657-2.726-2.093l-.028-.01.002-.34zm220.302 3.027c6.06-.639 12.128-1.205 18.19-1.812-2.74 13.858-5.463 27.718-8.219 41.572-2.655-.062-5.315.03-7.97-.012 2.583-.14 5.216.233 7.761-.344-.424-.592-.831-1.195-1.26-1.783.768-4.243 1.626-8.467 2.461-12.695 1.585-8.083 3.124-16.176 4.74-24.253-4.368.257-8.71.84-13.07 1.213-.821-.625-1.59-1.33-2.509-1.814zM47.358 45.448c-.331-1.237-.846-2.418-1.12-3.67 1.223.519 2.323 1.352 3.635 1.635l-.297.109c3.163 9.479 6.166 19.014 9.282 28.511 1.25 3.988 2.633 7.935 3.818 11.94-1.084-.546-2.22-.986-3.306-1.529-4.04-12.319-7.996-24.666-12.012-36.996z"/><path d="M224.848 42.339c3.351 0 6.7.088 10.05.152a218.083 218.083 0 011.71 3.431c.865 2.511 1.518 5.092 2.422 7.591l-.008.41c-1.665-3.13-3.501-6.169-5.146-9.308-2.26.004-4.52-.043-6.78-.089-.719-.761-1.516-1.44-2.248-2.187zm-31.825 4.011c3.507-.169 7.018-.189 10.527-.273.512 2.12 1.095 4.222 1.617 6.34-.207 2.346-.512 4.68-.7 7.026l-.1.301a645.247 645.247 0 01-2.643-11.478c-2.089 0-4.174.125-6.263.115-.813-.677-1.683-1.286-2.438-2.03zM115.63 63.31c.504 1.629.877 3.294 1.335 4.937.077 1.928-.128 3.875-.138 5.811-.08-.002-.159-.004-.235-.002-.458-.783-1.17-1.36-1.694-2.089.225-2.889.448-5.775.732-8.657zm89.134 6.192c.795-2.09 1.709-4.134 2.492-6.227l.07.235c.091 1.96.236 3.92.314 5.88-.902 1.92-1.83 3.828-2.754 5.739-.518-.7-1.012-1.414-1.508-2.13.349-1.209.94-2.326 1.386-3.497z"/></g><path d="M15.998 29.97c1.071.435 1.784 1.441 2.726 2.092 1.396 5.45 2.81 10.893 4.148 16.357 2.366-.55 4.688-1.28 7.047-1.864 2.133-.63 4.304-1.123 6.427-1.782.529-.158 1.075-.233 1.62-.311.084 1.38.367 2.736.54 4.106 1.95 13.002 3.885 26.008 5.837 39.01 3.475-1.15 6.924-2.386 10.4-3.545 1.546-.516 3.056-1.143 4.627-1.589 1.087.543 2.222.983 3.306 1.529-5.91 1.956-11.773 4.054-17.67 6.052-.82.257-1.603.63-2.455.78-2.141-14.39-4.276-28.781-6.442-43.167-.307.054-.614.106-.916.186-4.348 1.21-8.711 2.359-13.06 3.57-.261.07-.528.114-.798.145a10.776 10.776 0 00-.176-1.08c-1.631-6.437-3.283-12.87-4.914-19.31-.1-.388-.18-.784-.247-1.18zm220.4 2.75c.918.483 1.688 1.188 2.51 1.813-.025 4.901.11 9.802.182 14.704-.034 1.426.097 2.854-.06 4.276-.904-2.499-1.557-5.08-2.423-7.59-.04-4.404-.225-8.8-.209-13.204zm-113.32 2.054l.024.018c.755.548 1.47 1.145 2.155 1.778.016 1.99.083 3.979.036 5.97 3.108.126 6.211.363 9.323.482-1.278 10.34-2.772 20.655-3.943 31.006 3.497.345 6.968.908 10.465 1.245.685.914 1.466 1.75 2.232 2.598-5.088-.768-10.212-1.298-15.307-2.02 1.234-9.263 2.39-18.54 3.592-27.808.11-.912.265-1.817.323-2.733-2.956-.105-5.907-.392-8.866-.45.022-3.363-.09-6.723-.034-10.086zm87.592 7.121c.718.59 1.41 1.215 2.068 1.872-.396 4.564-.922 9.115-1.302 13.681-.066.765-.19 1.527-.357 2.278-.697-2.475-1.16-5.006-1.808-7.492.414-3.486.838-6.973 1.24-10.462zm12.602 33.235c.448-10.967.972-21.928 1.474-32.894l.102.103c.732.747 1.53 1.426 2.248 2.187-.247 4.38-.39 8.762-.633 13.141-.098 3.62-.381 7.231-.458 10.851-.076 1.489-.239 2.977-.176 4.47 2.197-.266 4.415-.21 6.624-.28.64.675 1.27 1.36 1.806 2.123-3.666.012-7.326.215-10.987.3zm-30.46-28.937l.21.157c.756.745 1.626 1.354 2.44 2.03.18 2.038.526 4.058.817 6.083.454 3.222.914 6.442 1.34 9.668.35 2.93.922 5.831 1.179 8.772 1.524.07 3.053.052 4.58.096.496.716.99 1.43 1.508 2.13l.034.046c-2.708-.038-5.413-.133-8.123-.143a6760 6760 0 00-2.57-18.375c-.455-3.49-1.018-6.968-1.415-10.464zm13.494 3.265c.213-.497.318-1.061.7-1.467.192 1.611.224 3.234.367 4.85-.99 2.19-1.894 4.42-2.907 6.602.189-2.346.494-4.68.701-7.027.294-1.016.78-1.964 1.14-2.958zm27.24 9.882c1.083 1.682 1.84 3.54 2.81 5.287.72 1.6 1.667 3.084 2.348 4.7.22.396.4 1.053.983.955 1.697-.012 3.392-.004 5.09-.014.428.588.835 1.19 1.26 1.783-2.546.577-5.18.203-7.762.344-.276-.042-.691.167-.834-.159-.834-1.583-1.788-3.101-2.61-4.69-.395-2.74-.901-5.464-1.285-8.206zm-26.219 4.17c1.683 3.797 3.105 7.704 4.81 11.49 1.445-.114 2.895-.058 4.343-.122.54.63 1.101 1.245 1.591 1.916l.149.205c-2.59-.006-5.179.118-7.768.112-.914-2.583-1.96-5.122-2.812-7.721-.078-1.96-.223-3.92-.313-5.88zm-101.695 5.522a33.096 33.096 0 002.475-3.551c-.249 2.089-.633 4.166-.775 6.267 2.523.052 5.044.177 7.566.219.525.73 1.236 1.306 1.694 2.089-1.221.022-2.44-.056-3.662-.08-2.641-.165-5.29-.13-7.932-.306.245-1.54.35-3.105.634-4.638z" fill="#ed9b4f"/><path d="M188.13 30.433c.813-.22 1.619-.534 2.476-.53.235.46.388.958.533 1.454-1.73.304-3.385.91-5.084 1.338-2.652.747-5.311 1.462-7.953 2.242a10.354 10.354 0 00-1.183-1.348c3.748-1.01 7.472-2.105 11.21-3.156zm-22.757 6.299c1.824-.198 3.545-.915 5.315-1.382.874.113 1.695.467 2.465.886-4.644 1.416-9.349 2.638-14.021 3.96l-.102-.314c.012-.432.104-.854.166-1.277 1.718-.446 3.417-.963 5.13-1.43l.077.206c.323-.213.647-.432.97-.649zm14.145 35.94c1.927-.584 3.873-1.107 5.815-1.633-.466 1.073-1.032 2.12-1.817 2.993-1.338-.436-2.662-.916-3.998-1.36z" fill="#feffff"/><path d="M18.724 32.062c1.406-.062 2.812.016 4.218.038l7.627-.002c6.231.123 12.464.033 18.695.049 1.155.014 2.312-.059 3.461.078.54 2.368 1.23 4.702 1.704 7.083-2.738.801-5.462 1.645-8.192 2.47.275 1.252.79 2.433 1.121 3.67 4.016 12.33 7.973 24.677 12.012 36.996-1.57.446-3.081 1.073-4.628 1.59-3.475 1.158-6.924 2.394-10.399 3.545-1.952-13.003-3.887-26.009-5.837-39.011-.173-1.37-.456-2.726-.54-4.106-.545.078-1.091.153-1.62.311-2.123.66-4.294 1.151-6.427 1.782-2.359.585-4.68 1.314-7.047 1.864-1.338-5.464-2.752-10.907-4.148-16.357zm130.571.715c1.318-.209 2.652-.355 3.951-.679.047.384.069.776.003 1.16-.477 3.36-.939 6.719-1.384 10.083-1.664.09-3.323-.1-4.986-.122a168.81 168.81 0 01-5.604-.215l.002.04c-.047 4.533.004 9.07-.024 13.603-.15 2.344-.057 4.694-.08 7.042-.023 3.86.041 7.724-.035 11.584-3.497-.337-6.968-.9-10.465-1.245 1.17-10.35 2.665-20.666 3.943-31.006-3.112-.119-6.215-.356-9.323-.482.047-1.991-.02-3.98-.036-5.97 8.017-1.234 16.028-2.515 24.038-3.793zm89.612 1.756c4.36-.374 8.702-.956 13.07-1.213-1.616 8.077-3.155 16.17-4.74 24.253-.835 4.228-1.693 8.452-2.46 12.695-1.698.01-3.393.002-5.09.014-.583.098-.764-.559-.983-.954-.68-1.617-1.629-3.102-2.348-4.7-.97-1.748-1.727-3.606-2.81-5.288a9.635 9.635 0 01-.165-.317c-.27 4.564-.685 9.121-.928 13.685-2.21.07-4.427.014-6.624.28-.063-1.493.1-2.981.176-4.47.077-3.62.36-7.231.458-10.85.243-4.38.386-8.763.633-13.142 2.26.046 4.52.093 6.78.089 1.645 3.14 3.48 6.178 5.146 9.308l.008-.41c.157-1.422.026-2.85.06-4.276-.072-4.902-.207-9.803-.183-14.704zm-26.169 9.234c2.611-.099 5.219-.263 7.832-.354-1.348 10.49-2.734 20.975-4.09 31.465-1.448.064-2.898.008-4.343.122-1.705-3.786-3.127-7.693-4.81-11.49l-.07-.235c-.784 2.093-1.698 4.136-2.493 6.227-.446 1.171-1.037 2.288-1.386 3.497-1.527-.044-3.056-.026-4.58-.096-.257-2.94-.83-5.841-1.18-8.772-.425-3.226-.885-6.446-1.34-9.668-.29-2.025-.636-4.045-.817-6.082 2.09.01 4.174-.115 6.263-.115.848 3.833 1.726 7.66 2.644 11.478l.098-.301c1.013-2.182 1.917-4.411 2.907-6.603 1.201 2.517 2.515 4.98 3.742 7.487a32.02 32.02 0 01-.036-.601c.167-.751.291-1.513.357-2.278.38-4.566.906-9.117 1.302-13.681zm-93.796 7.312c2.085-.247 4.18-.376 6.273-.55.012.79-.02 1.582-.1 2.371-.336 5.516-.655 11.034-.989 16.55-1.355-.006-2.713.217-4.065.044-1.358-2.185-2.943-4.218-4.435-6.309l.004.125c-.284 2.882-.507 5.768-.732 8.657-2.522-.042-5.043-.167-7.566-.219.142-2.101.526-4.178.775-6.267 1.677-3.246 2.7-6.832 2.895-10.487 1.66.19 3.328.335 4.985.572.914 1.93 1.848 3.85 2.782 5.773-.026-.221-.05-.44-.074-.657.157-3.198.133-6.404.247-9.603zm121.106 28.015c2.091-.241 4.19-.398 6.283-.63a22.076 22.076 0 01-.488 1.996c-.982.042-1.96.136-2.938.219-.07.628-.13 1.26-.19 1.892.87-.078 1.74-.159 2.612-.223-.16.562-.321 1.127-.522 1.68-.75.035-1.495.108-2.238.17-.058.584-.118 1.167-.169 1.752.943-.079 1.883-.193 2.825-.282-.13.54-.268 1.081-.398 1.621-1.756.145-3.5.404-5.257.507.157-2.901.356-5.8.48-8.702zm-39.653.203c1.092-.221 2.29-.063 3.22.576 1.313.862 2.066 2.36 2.372 3.865.592 3.156-.388 6.603-2.674 8.882-1.032.94-2.362 1.67-3.79 1.646a4.13 4.13 0 01-3.06-1.395c-1.257-1.351-1.713-3.258-1.709-5.06.052-2.552 1-5.15 2.865-6.935.76-.76 1.719-1.342 2.776-1.58m.016 1.847a16.182 16.182 0 00-1.57 6.669c-.053 1.701.495 3.346 1.298 4.828a15.4 15.4 0 001.969-4.622c.366-1.444.478-2.999.054-4.443-.297-.984-1.028-1.74-1.751-2.432zm35.24-1.635c.886-.155 1.792-.18 2.69-.261a526.57 526.57 0 00-.798 8.721c-1.106.235-2.24.308-3.354.49-.408-1.637-.832-3.268-1.221-4.907a148.82 148.82 0 01-.438 4.93c-.812.054-1.621.132-2.429.212.022-2.747-.08-5.495-.04-8.245 1.424-.123 2.852-.237 4.275-.404.331 1.55.733 3.087 1.048 4.642.187-1.72.137-3.455.267-5.178zm-10.676.912c1.107-.125 2.218-.21 3.328-.316-.299 2.935-.56 5.874-.906 8.804-.88.057-1.755.155-2.633.213.038-2.9.113-5.803.211-8.701zm-6.607.588c1.097-.144 2.202-.229 3.305-.32-.247 2.377-.549 4.75-.778 7.13.838-.057 1.678-.08 2.517-.131-.02.52-.05 1.04-.102 1.559-1.764.13-3.52.337-5.281.464.102-2.9.241-5.801.34-8.702zm-4.742.621c.894-.044 1.784-.157 2.68-.21-.262 2.918-.55 5.83-.8 8.749-1.117.158-2.234.32-3.355.436-.38-1.553-.759-3.108-1.199-4.642-.178 1.558-.275 3.125-.43 4.688-.811.048-1.617.12-2.42.223-.104-2.744-.004-5.492-.109-8.238 1.439-.148 2.879-.283 4.323-.392.352 1.523.69 3.05 1.073 4.566.114-1.725.126-3.455.237-5.18z" fill="#fef200"/><path d="M70.243 35.304c2.909-1.044 6.125.157 8.437 1.999 3.242 2.515 5.475 6.126 6.863 9.945 1.597 4.423 2.353 9.144 2.284 13.844-.034 2.314-.56 4.604-1.356 6.767-.86 1.049-1.438 2.342-2.537 3.18-.823.615-1.705 1.169-2.667 1.539-.98.401-2.059.279-3.09.285-1.078.012-2.078-.444-3.029-.904-1.807-.836-3.24-2.24-4.726-3.525-1.904-2.015-3.379-4.41-4.443-6.962-1.185-3.363-1.728-6.906-2.2-10.426-.333-2.157-.082-4.346-.31-6.512.041-.333.081-.667.127-1 .193-.745.39-1.493.697-2.202.135-.371.362-.757.241-1.165.013.05.033.151.043.201 1.147-2.318 3.22-4.2 5.666-5.064m5.311 11.771c.751.35 1.497.727 2.127 1.274 2.234 1.822 3.359 4.718 3.516 7.542-.782-1.259-1.812-2.384-3.1-3.133-1.42-.852-3.117-1.103-4.746-.902-.444 2.898-.089 5.91.944 8.651.835 2.168 2.105 4.325 4.15 5.546 1.281.8 3.033.856 4.274-.054 1.667-1.235 2.4-3.316 2.722-5.29.534-3.705-.19-7.594-2.045-10.848-.944-1.57-2.236-3.095-4.03-3.688-1.315-.454-2.834-.082-3.812.902z" fill="#fbfbfb"/><path d="M165.373 36.732c1.507-1.114 3.445-1.705 5.315-1.382-1.77.467-3.491 1.184-5.315 1.382z" fill="#b6b6b6"/><path d="M46.237 41.778c2.73-.825 5.454-1.669 8.192-2.47 1.036.588 2.119 1.092 3.107 1.757-2.509.906-5.106 1.577-7.663 2.348-1.312-.283-2.412-1.116-3.636-1.635zm95.038 1.226c1.866.104 3.734.172 5.604.215 1.663.022 3.322.212 4.986.122.632.761 1.315 1.482 1.896 2.288a450.094 450.094 0 01-10.325-.31c-.665-.81-1.422-1.534-2.16-2.275z" fill="#ee9b50"/><path d="M64.534 40.167c.121.408-.106.794-.24 1.165-.308.71-.505 1.457-.698 2.202-.699 1.163-.727 2.563-.938 3.867-.59 4.142-.014 8.33.798 12.397 1.34 4.703 3.48 9.35 7.123 12.72 1.237 1.016 2.492 2.084 4.033 2.607 2.366.974 5.187.733 7.342-.65.24-.166.536-.19.817-.24-1.219 1.812-3.264 3.033-5.413 3.378-2.236.314-4.53-.415-6.354-1.699-3.059-2.077-5.202-5.233-6.777-8.525-2.223-4.847-3.274-10.226-3.095-15.551.215-4.064 1.03-8.284 3.402-11.67z" fill="#7b7b7b"/><path d="M210.52 41.772c4.092-.219 8.184-.407 12.274-.634-1.513 11.947-3.072 23.889-4.588 35.835l-.135-.18c-.49-.67-1.05-1.285-1.59-1.915 1.355-10.49 2.741-20.975 4.089-31.465-2.613.09-5.22.255-7.832.354a28.985 28.985 0 00-2.069-1.872zm-93.663 7.398c3.56-.313 7.123-.588 10.686-.892-.494 7.704-.964 15.411-1.504 23.108l-.069.372a57.965 57.965 0 01-1.844-2.308c.334-5.516.653-11.034.989-16.55.08-.789.112-1.58.1-2.372-2.093.175-4.188.304-6.273.55-.725-.602-1.408-1.255-2.085-1.908z" fill="#fffac1"/><path d="M141.277 43.044c.737.741 1.494 1.464 2.159 2.276.004 10.85-.066 21.7-.066 32.55-.766-.847-1.547-1.683-2.232-2.597.076-3.86.012-7.723.034-11.584.024-2.348-.068-4.698.08-7.042.029-4.534-.022-9.07.025-13.603zm-30.255 9.893c2.117.172 4.22.48 6.335.662.518 2.347.798 4.741 1.338 7.083.024.217.048.436.074.657-.934-1.922-1.868-3.843-2.782-5.773-1.657-.237-3.324-.382-4.985-.572.036-.685.024-1.372.02-2.057z" fill="#fefac0"/><path d="M62.658 47.4c.211-1.303.24-2.703.938-3.866-.046.333-.086.667-.126 1-.442 1.555-.488 3.182-.452 4.785-.332 1.271-.07 2.573.002 3.859.444 5.55 1.989 11.174 5.38 15.672 1.811 2.297 3.997 4.453 6.799 5.477 2.213.932 4.776.555 6.845-.568.671-.386 1.214-.952 1.674-1.567.472-.607.942-1.227 1.592-1.655-.552 1.404-1.615 2.549-2.539 3.698-.28.05-.576.074-.817.24-2.155 1.383-4.976 1.624-7.342.65-1.54-.523-2.796-1.591-4.033-2.608-3.642-3.368-5.783-8.016-7.123-12.719-.812-4.067-1.388-8.255-.798-12.397z" fill="#9c9c9c"/><path d="M63.018 49.319c-.036-1.603.01-3.23.452-4.785.227 2.166-.024 4.355.31 6.512.471 3.52 1.014 7.063 2.199 10.426 1.064 2.553 2.539 4.947 4.443 6.962 1.486 1.285 2.919 2.69 4.726 3.525.95.46 1.95.916 3.03.904 1.03-.006 2.109.116 3.089-.285.962-.37 1.844-.924 2.667-1.539 1.1-.838 1.678-2.131 2.537-3.18-.182.79-.576 1.5-.881 2.246-.099.139-.155.311-.28.432-.65.428-1.12 1.048-1.592 1.655-.852.036-1.358.842-2.12 1.115-1.15.416-2.378.767-3.615.635-2.037-.129-3.947-1.059-5.54-2.296-1.167-.82-2.184-1.834-3.05-2.963-2.444-2.843-4.013-6.356-4.919-9.971-.47-1.919-.647-3.893-1.066-5.824-.266-1.175-.065-2.402-.39-3.569z" fill="#d5d5d5"/><path d="M93.653 47.618c.072-.055.22-.163.293-.217l.064.564c-.122.19-.241.384-.355.577-.854 1.197-.953 2.713-1.234 4.111-.311 2.853-.209 5.844.978 8.505.424 1.354 1.386 2.443 2.403 3.393 1.639 1.48 4.146 1.858 6.167.994.265-.128.443-.371.664-.556.161.002.322.008.484.022l.197.074c-1.209.928-2.69 1.577-4.24 1.517-2.055.026-3.91-1.26-5.036-2.91-1.938-2.787-2.442-6.318-2.177-9.639.22-2.223.765-4.443 1.792-6.435z" fill="#909090"/><path d="M206.977 47.684c.794 1.502 1.507 3.045 2.294 4.55.649 2.486 1.11 5.017 1.808 7.492.01.199.022.398.036.6-1.227-2.506-2.541-4.969-3.742-7.486-.143-1.615-.175-3.238-.368-4.849zm26.404 11.339c.053.104.107.21.165.317.384 2.742.89 5.466 1.286 8.206-.191 2.428-.394 4.855-.573 7.285-.536-.763-1.167-1.448-1.806-2.123.243-4.564.657-9.121.928-13.685z" fill="#fefac1"/><path d="M93.655 48.542c.114-.193.233-.386.355-.577.05 2.045-.773 4.01-.69 6.062-.121 2.993 1.011 5.98 2.978 8.224 1.282 1.346 3.107 2.23 4.99 2.157 1.11.022 2.129-.492 3.218-.63-.298.492-.754.851-1.16 1.247l-.229-.014a6.554 6.554 0 00-.484-.022c-.984.006-1.96.311-2.944.15-.73-.114-1.465-.174-2.202-.126.207-.052.416-.103.625-.153-.774-.498-1.796-.649-2.35-1.442-.8-.96-1.469-2.013-1.887-3.196-.026.153-.074.456-.1.607-.22-1.055-.649-2.057-.757-3.138-.412-1.892-.352-3.852-.04-5.755.158-1.147.576-2.237.677-3.394z" fill="#d9d9d9"/><path d="M172.444 48.467c.062.002.19.002.253.004.918 2.99.695 6.217-.036 9.222-.633 2.499-1.686 4.946-3.371 6.918-.038-.004-.117-.016-.157-.022-1-3.75-.432-7.751.802-11.377.614-1.681 1.4-3.329 2.509-4.745z" fill="#fe5d27"/><path d="M92.421 52.653c.281-1.398.38-2.914 1.234-4.111-.1 1.157-.519 2.247-.677 3.394-.312 1.903-.372 3.863.04 5.755.108 1.08.536 2.083.757 3.138.026-.15.074-.454.1-.607.418 1.183 1.087 2.236 1.887 3.196.554.793 1.576.944 2.35 1.442-.21.05-.418.1-.625.153.737-.048 1.472.012 2.202.126.984.161 1.96-.144 2.944-.15-.22.185-.4.428-.664.556-2.021.864-4.528.486-6.167-.994-1.017-.95-1.979-2.039-2.403-3.393-1.187-2.661-1.29-5.652-.978-8.505z" fill="#b1b1b1"/><path d="M63.018 49.319c.325 1.167.124 2.394.39 3.57.42 1.93.596 3.904 1.066 5.823.906 3.615 2.475 7.128 4.92 9.97.865 1.13 1.882 2.144 3.049 2.964 1.593 1.237 3.503 2.167 5.54 2.296 1.237.132 2.464-.22 3.615-.635.762-.273 1.268-1.079 2.12-1.115-.46.615-1.003 1.181-1.674 1.567-2.069 1.123-4.632 1.5-6.845.568-2.802-1.024-4.988-3.18-6.8-5.477-3.39-4.498-4.935-10.122-5.38-15.672-.071-1.286-.333-2.588-.001-3.859z" fill="#b9b9b9"/><path d="M116.857 49.17c.677.653 1.36 1.306 2.085 1.909-.114 3.2-.09 6.405-.247 9.603-.54-2.342-.82-4.736-1.338-7.083-.257-1.464-.32-2.954-.5-4.429z" fill="#ef9a4e"/><path d="M115.626 63.185c1.492 2.091 3.077 4.124 4.435 6.31 1.352.172 2.71-.05 4.065-.045a57.965 57.965 0 001.844 2.308l.069-.372c.018.129.038.26.06.39-2.378-.152-4.777-.062-7.145-.343-.576-1.115-1.398-2.081-1.989-3.186-.458-1.643-.831-3.308-1.335-4.937z" fill="#ee9b4f"/><path d="M173.96 74.126c1.013-.21 1.997-.538 3.013-.733-.444.954-.862 1.933-1.466 2.8-.008.159-.014.32-.018.48-1.356.35-2.694.764-4.04 1.15a2.94 2.94 0 01-1.022.104c1.38-1.059 2.545-2.374 3.533-3.8z" fill="#fefeff"/></svg>